<svg id="svg" version="1.1" xmlns="http://www.w3.org/2000/svg" xmlns:xlink="http://www.w3.org/1999/xlink" width="400" height="400" viewBox="0, 0, 400,400"><g id="svgg"><path id="path0" d="M152.937 36.550 C 152.847 36.705,152.172 39.403,148.900 52.700 C 144.905 68.932,144.553 70.306,144.329 70.527 C 144.203 70.651,142.975 71.207,141.600 71.761 C 140.225 72.315,138.110 73.237,136.900 73.810 C 135.690 74.383,133.800 75.276,132.700 75.794 C 130.403 76.876,122.648 81.161,120.460 82.558 C 110.374 88.994,103.822 94.006,96.168 101.142 C 60.935 133.987,42.844 184.343,49.515 231.000 L 49.987 234.300 48.144 236.075 C 47.130 237.051,45.490 238.627,44.500 239.577 C 43.510 240.527,41.440 242.518,39.900 244.002 C 34.098 249.592,26.857 256.547,25.720 257.622 L 24.541 258.737 25.437 260.319 C 26.279 261.803,27.023 263.093,30.906 269.800 C 31.765 271.285,33.116 273.625,33.906 275.000 C 34.697 276.375,36.046 278.715,36.904 280.200 C 37.762 281.685,39.111 284.025,39.902 285.400 C 40.693 286.775,41.999 289.025,42.805 290.400 C 43.610 291.775,44.736 293.710,45.307 294.700 C 45.877 295.690,47.021 297.670,47.847 299.100 C 50.182 303.138,57.318 315.546,59.004 318.500 C 60.333 320.830,71.477 340.117,71.532 340.183 C 71.569 340.229,72.883 339.899,74.450 339.449 C 79.105 338.113,88.899 335.281,91.800 334.432 C 93.285 333.998,95.805 333.267,97.400 332.809 C 98.995 332.350,100.840 331.813,101.500 331.615 C 102.160 331.417,103.341 331.091,104.125 330.890 L 105.550 330.524 107.325 331.938 C 112.475 336.039,121.986 342.229,127.700 345.198 C 129.020 345.884,130.826 346.836,131.714 347.314 C 142.762 353.255,160.327 359.034,174.500 361.389 C 201.822 365.929,228.290 363.322,254.200 353.538 C 258.562 351.891,265.366 348.884,268.286 347.314 C 269.174 346.836,270.980 345.884,272.300 345.198 C 278.014 342.229,287.525 336.039,292.675 331.938 L 294.450 330.524 295.875 330.890 C 296.659 331.091,297.840 331.417,298.500 331.615 C 299.160 331.813,301.005 332.350,302.600 332.809 C 304.195 333.267,306.715 333.998,308.200 334.432 C 311.101 335.281,320.895 338.113,325.550 339.449 C 327.117 339.899,328.431 340.229,328.468 340.183 C 328.523 340.117,339.667 320.830,340.996 318.500 C 342.679 315.552,349.813 303.146,352.153 299.100 C 352.979 297.670,354.304 295.375,355.097 294.000 C 355.889 292.625,357.014 290.690,357.597 289.700 C 358.179 288.710,359.304 286.775,360.096 285.400 C 360.888 284.025,362.238 281.685,363.096 280.200 C 363.954 278.715,365.303 276.375,366.094 275.000 C 366.884 273.625,368.235 271.285,369.094 269.800 C 372.977 263.093,373.721 261.803,374.563 260.319 L 375.459 258.737 374.280 257.622 C 373.143 256.547,365.902 249.592,360.100 244.002 C 358.560 242.518,356.490 240.527,355.500 239.577 C 354.510 238.627,352.870 237.051,351.856 236.075 L 350.013 234.300 350.485 231.000 C 357.158 184.329,339.076 133.997,303.832 101.142 C 296.178 94.006,289.626 88.994,279.540 82.558 C 277.352 81.161,269.597 76.876,267.300 75.794 C 266.200 75.276,264.310 74.383,263.100 73.810 C 261.890 73.237,259.775 72.315,258.400 71.761 C 257.025 71.207,255.797 70.651,255.671 70.527 C 255.445 70.304,255.061 68.803,250.978 52.200 C 249.856 47.635,248.520 42.235,248.011 40.200 L 247.085 36.500 200.054 36.450 C 174.188 36.422,152.985 36.467,152.937 36.550 M193.100 43.639 C 196.271 44.313,199.158 47.152,199.722 50.150 C 199.790 50.508,199.914 50.800,200.000 50.800 C 200.086 50.800,200.210 50.508,200.278 50.150 C 201.750 42.320,214.616 40.833,216.617 48.262 C 216.990 49.650,216.794 50.259,216.263 49.361 C 214.342 46.111,209.440 46.420,207.700 49.900 C 205.725 53.850,209.076 58.401,215.350 60.291 C 215.982 60.482,215.928 60.677,214.829 62.176 C 207.730 71.857,202.932 82.531,200.592 93.850 C 200.041 96.517,199.959 96.517,199.408 93.850 C 197.068 82.531,192.270 71.857,185.171 62.176 C 184.072 60.677,184.018 60.482,184.650 60.291 C 190.924 58.401,194.275 53.850,192.300 49.900 C 190.561 46.421,185.657 46.112,183.737 49.361 C 183.206 50.259,183.010 49.650,183.383 48.262 C 184.367 44.610,188.475 42.656,193.100 43.639 M199.732 56.190 C 199.335 58.177,197.320 60.937,195.265 62.309 C 194.624 62.736,194.024 63.147,193.931 63.222 C 193.838 63.297,194.277 64.232,194.905 65.301 C 196.084 67.304,199.153 73.522,199.618 74.850 C 199.762 75.263,199.934 75.600,200.000 75.600 C 200.066 75.600,200.238 75.263,200.382 74.850 C 200.847 73.522,203.916 67.304,205.095 65.301 C 205.723 64.232,206.162 63.297,206.069 63.222 C 205.976 63.147,205.376 62.736,204.735 62.309 C 202.680 60.937,200.665 58.177,200.268 56.190 C 200.117 55.436,199.883 55.436,199.732 56.190 M190.766 96.273 C 197.471 107.337,191.566 126.269,178.749 134.800 C 168.975 141.307,158.991 143.297,144.500 141.627 C 128.512 139.785,122.374 140.291,114.500 144.099 C 110.527 146.020,106.984 148.608,103.836 151.886 C 101.363 154.463,101.361 154.216,103.820 149.897 C 112.347 134.923,121.765 127.505,139.100 122.109 C 147.708 119.429,149.323 118.845,152.275 117.342 C 157.395 114.737,160.689 111.067,162.693 105.738 C 163.259 104.233,163.471 104.224,163.626 105.700 C 164.233 111.467,161.154 119.092,156.244 123.980 C 155.316 124.903,154.679 125.608,154.829 125.544 C 156.272 124.934,161.879 122.754,164.643 121.728 C 180.329 115.908,186.246 112.209,189.001 106.500 C 190.511 103.371,190.815 98.477,189.682 95.525 C 189.382 94.743,190.167 95.285,190.766 96.273 M139.000 143.899 C 165.290 147.982,177.468 167.788,169.467 193.450 C 168.595 196.246,168.366 196.439,168.753 194.050 C 170.721 181.891,163.991 168.554,154.129 165.075 C 153.061 164.698,153.058 164.662,154.305 166.914 C 158.718 174.884,159.851 183.885,158.283 198.500 C 158.117 200.040,157.541 204.900,157.003 209.300 C 153.624 236.889,153.485 254.328,156.514 270.464 C 161.359 296.274,173.757 314.967,191.551 323.292 C 193.836 324.361,193.481 324.393,190.463 323.390 C 170.329 316.703,150.222 299.996,138.964 280.600 C 126.686 259.447,123.385 237.073,128.107 207.000 C 132.560 178.636,130.626 166.910,120.700 162.107 C 112.504 158.140,101.574 162.203,99.059 170.150 C 98.365 172.344,98.184 170.821,98.712 167.226 C 100.640 154.103,112.138 144.984,128.600 143.523 C 130.518 143.353,136.989 143.587,139.000 143.899 M247.739 154.215 C 267.021 155.834,284.060 165.706,295.766 182.041 C 311.254 203.651,311.730 234.427,296.873 253.600 C 294.029 257.270,293.555 257.534,294.985 254.650 C 299.155 246.237,298.997 233.770,294.578 222.468 C 293.647 220.086,293.452 219.926,293.912 221.920 C 295.218 227.590,294.304 234.575,290.890 245.000 C 287.246 256.129,286.464 259.470,286.258 264.800 C 286.074 269.559,286.708 273.363,288.405 277.687 C 289.086 279.422,289.281 280.322,288.839 279.689 C 288.763 279.580,288.196 278.818,287.581 277.995 C 282.299 270.942,280.699 263.934,279.998 244.800 C 279.480 230.646,278.675 224.858,276.262 217.920 C 272.270 206.443,261.942 196.091,249.600 191.196 C 237.824 186.524,223.283 186.581,211.600 191.344 C 181.764 203.508,164.495 253.230,177.126 290.600 C 182.592 306.773,194.939 320.694,208.254 325.699 C 208.779 325.896,209.169 326.098,209.120 326.147 C 208.981 326.286,204.520 324.459,202.370 323.383 C 183.417 313.895,170.778 296.076,165.902 271.966 C 163.050 257.863,163.134 237.841,166.108 222.900 C 172.320 191.693,191.938 166.604,216.833 158.031 C 226.001 154.873,237.974 153.395,247.739 154.215 M116.931 168.204 C 123.748 172.346,126.482 180.219,124.888 191.123 C 124.291 195.209,123.758 197.037,119.504 209.600 C 118.330 213.065,116.935 217.611,116.404 219.702 C 109.755 245.875,116.422 271.312,133.361 284.400 C 135.904 286.365,135.271 286.255,130.487 283.897 C 114.476 276.009,104.290 262.154,101.817 244.900 C 100.008 232.276,102.352 220.387,109.702 204.900 C 114.079 195.678,115.585 191.976,116.688 187.728 C 117.380 185.064,117.359 184.958,116.350 185.990 C 113.978 188.415,111.218 189.469,107.200 189.483 C 102.686 189.500,101.957 189.073,104.700 188.021 C 109.140 186.318,112.764 182.848,114.274 178.853 C 115.836 174.722,115.622 170.249,113.737 167.625 C 113.347 167.082,113.073 166.594,113.128 166.539 C 113.291 166.375,115.544 167.362,116.931 168.204 M235.197 199.095 C 249.145 201.464,261.085 210.035,266.557 221.609 C 270.640 230.245,271.581 237.558,270.594 253.000 C 268.995 278.025,275.320 291.592,290.693 296.111 C 294.022 297.090,293.614 297.399,289.000 297.392 C 283.885 297.383,277.761 296.177,272.800 294.201 C 262.004 289.900,253.384 281.803,250.974 273.700 C 250.745 272.930,250.540 272.280,250.518 272.255 C 250.495 272.231,249.799 272.876,248.969 273.689 C 241.347 281.165,226.240 282.677,217.454 276.843 C 216.521 276.223,216.136 275.609,216.768 275.748 C 231.598 278.992,245.213 261.549,238.696 247.655 C 233.314 236.182,217.166 233.137,205.868 241.466 C 195.718 248.949,188.801 265.429,188.800 282.129 C 188.799 296.007,193.277 307.918,201.778 316.650 C 204.328 319.269,204.334 319.592,201.800 317.773 C 185.735 306.240,176.916 284.856,178.181 260.501 C 179.181 241.246,184.063 227.471,194.272 215.100 C 204.583 202.606,220.112 196.533,235.197 199.095 M99.767 269.777 C 99.730 269.874,98.808 270.745,97.718 271.714 C 89.858 278.695,83.995 286.694,78.702 297.655 L 77.000 301.181 75.450 300.017 C 71.683 297.189,68.836 296.394,66.116 297.411 C 61.300 299.213,61.891 306.097,66.941 307.037 C 68.424 307.312,68.400 307.435,66.774 307.891 C 59.395 309.962,54.312 299.090,59.869 293.122 C 60.353 292.602,60.609 292.231,60.436 292.297 C 52.671 295.276,44.625 285.219,50.037 279.298 C 51.279 277.938,51.791 277.824,51.147 279.050 C 48.607 283.883,55.006 288.432,59.130 284.725 C 61.309 282.766,62.316 277.142,61.069 273.892 C 60.953 273.589,61.064 273.567,62.120 273.683 C 74.263 275.011,86.254 273.939,96.300 270.630 C 99.445 269.594,99.876 269.487,99.767 269.777 M303.869 270.694 C 314.189 273.986,325.788 275.005,337.880 273.683 C 338.936 273.567,339.047 273.589,338.931 273.892 C 337.684 277.142,338.691 282.766,340.870 284.725 C 344.994 288.432,351.393 283.883,348.853 279.050 C 348.209 277.824,348.721 277.938,349.963 279.298 C 355.375 285.219,347.329 295.276,339.564 292.297 C 339.391 292.231,339.647 292.602,340.131 293.122 C 345.688 299.090,340.605 309.962,333.226 307.891 C 331.600 307.435,331.576 307.312,333.059 307.037 C 338.109 306.097,338.700 299.213,333.884 297.411 C 331.164 296.394,328.317 297.189,324.550 300.017 L 323.000 301.181 321.298 297.655 C 316.005 286.694,310.142 278.695,302.282 271.714 C 299.432 269.182,299.331 269.247,303.869 270.694 M79.700 280.124 C 78.710 280.271,75.730 280.451,73.078 280.525 L 68.255 280.659 68.139 282.379 C 67.958 285.072,67.028 287.308,65.320 289.166 C 64.732 289.804,64.613 290.023,64.900 289.936 C 67.384 289.183,70.637 289.491,73.069 290.707 C 73.831 291.088,74.475 291.400,74.502 291.400 C 74.529 291.400,75.022 290.582,75.599 289.583 C 76.950 287.242,79.092 283.992,80.828 281.650 C 81.801 280.337,82.098 279.808,81.850 279.829 C 81.657 279.844,80.690 279.977,79.700 280.124 M319.172 281.650 C 320.908 283.992,323.050 287.242,324.401 289.583 C 324.978 290.582,325.471 291.400,325.498 291.400 C 325.525 291.400,326.169 291.088,326.931 290.707 C 329.363 289.491,332.616 289.183,335.100 289.936 C 335.387 290.023,335.268 289.804,334.680 289.166 C 332.971 287.308,332.042 285.072,331.861 282.379 L 331.745 280.657 327.022 280.537 C 324.425 280.471,321.310 280.279,320.100 280.110 C 318.890 279.941,317.878 279.803,317.850 279.802 C 317.823 279.801,318.418 280.632,319.172 281.650 " stroke="none" fill="#ffffff" fill-rule="evenodd"></path><path id="path1" d="M146.416 28.950 C 146.306 29.363,144.319 37.395,142.001 46.800 C 137.929 63.312,137.618 64.400,136.961 64.400 C 135.306 64.400,118.380 73.502,111.280 78.210 C 75.255 102.098,50.461 139.498,42.406 182.100 C 39.658 196.634,39.024 209.926,40.329 225.692 L 40.841 231.884 39.970 232.682 C 39.492 233.121,36.760 235.737,33.900 238.496 C 31.040 241.255,26.406 245.714,23.603 248.406 C 15.205 256.468,14.400 257.256,14.400 257.407 C 14.400 257.488,15.599 259.611,17.064 262.127 C 18.529 264.642,23.154 272.640,27.341 279.900 C 37.334 297.223,44.771 310.108,55.623 328.900 C 60.514 337.370,65.225 345.544,66.091 347.063 C 67.571 349.661,67.696 349.819,68.172 349.700 C 68.450 349.630,76.457 347.324,85.964 344.576 C 103.150 339.608,103.254 339.581,103.676 339.963 C 103.909 340.175,106.035 341.695,108.400 343.341 C 112.220 345.999,114.787 347.639,120.949 351.356 C 124.877 353.725,133.903 358.063,140.800 360.896 C 145.118 362.670,152.811 365.172,160.500 367.302 C 163.843 368.229,172.519 369.886,178.900 370.817 C 182.284 371.311,188.550 371.815,194.050 372.036 C 202.533 372.377,213.931 371.863,221.100 370.817 C 227.481 369.886,236.157 368.229,239.500 367.302 C 247.189 365.172,254.882 362.670,259.200 360.896 C 266.097 358.063,275.123 353.725,279.051 351.356 C 285.213 347.639,287.780 345.999,291.600 343.341 C 293.965 341.695,296.091 340.175,296.324 339.963 C 296.746 339.581,296.850 339.608,314.036 344.576 C 323.543 347.324,331.550 349.630,331.828 349.700 C 332.304 349.819,332.429 349.661,333.909 347.063 C 334.775 345.544,339.486 337.370,344.377 328.900 C 355.229 310.108,362.666 297.223,372.659 279.900 C 376.846 272.640,381.471 264.642,382.936 262.127 C 384.401 259.611,385.600 257.488,385.600 257.407 C 385.600 257.256,384.795 256.468,376.397 248.406 C 373.594 245.714,368.960 241.255,366.100 238.496 C 363.240 235.737,360.508 233.121,360.030 232.682 L 359.159 231.884 359.671 225.692 C 361.908 198.655,357.968 173.569,347.641 149.100 C 335.583 120.527,314.765 95.481,288.720 78.210 C 281.620 73.502,264.694 64.400,263.039 64.400 C 262.382 64.400,262.071 63.312,257.999 46.800 C 255.681 37.395,253.694 29.363,253.584 28.950 L 253.385 28.200 200.000 28.200 L 146.615 28.200 146.416 28.950 M248.011 40.200 C 248.520 42.235,249.856 47.635,250.978 52.200 C 255.061 68.803,255.445 70.304,255.671 70.527 C 255.797 70.651,257.025 71.207,258.400 71.761 C 259.775 72.315,261.890 73.237,263.100 73.810 C 264.310 74.383,266.200 75.276,267.300 75.794 C 269.597 76.876,277.352 81.161,279.540 82.558 C 289.626 88.994,296.178 94.006,303.832 101.142 C 339.076 133.997,357.158 184.329,350.485 231.000 L 350.013 234.300 351.856 236.075 C 352.870 237.051,354.510 238.627,355.500 239.577 C 356.490 240.527,358.560 242.518,360.100 244.002 C 365.902 249.592,373.143 256.547,374.280 257.622 L 375.459 258.737 374.563 260.319 C 373.721 261.803,372.977 263.093,369.094 269.800 C 368.235 271.285,366.884 273.625,366.094 275.000 C 365.303 276.375,363.954 278.715,363.096 280.200 C 362.238 281.685,360.888 284.025,360.096 285.400 C 359.304 286.775,358.179 288.710,357.597 289.700 C 357.014 290.690,355.889 292.625,355.097 294.000 C 354.304 295.375,352.979 297.670,352.153 299.100 C 349.813 303.146,342.679 315.552,340.996 318.500 C 339.667 320.830,328.523 340.117,328.468 340.183 C 328.431 340.229,327.117 339.899,325.550 339.449 C 320.895 338.113,311.101 335.281,308.200 334.432 C 306.715 333.998,304.195 333.267,302.600 332.809 C 301.005 332.350,299.160 331.813,298.500 331.615 C 297.840 331.417,296.659 331.091,295.875 330.890 L 294.450 330.524 292.675 331.938 C 287.525 336.039,278.014 342.229,272.300 345.198 C 270.980 345.884,269.174 346.836,268.286 347.314 C 257.238 353.255,239.673 359.034,225.500 361.389 C 198.178 365.929,171.710 363.322,145.800 353.538 C 141.438 351.891,134.634 348.884,131.714 347.314 C 130.826 346.836,129.020 345.884,127.700 345.198 C 121.986 342.229,112.475 336.039,107.325 331.938 L 105.550 330.524 104.125 330.890 C 103.341 331.091,102.160 331.417,101.500 331.615 C 100.840 331.813,98.995 332.350,97.400 332.809 C 95.805 333.267,93.285 333.998,91.800 334.432 C 88.899 335.281,79.105 338.113,74.450 339.449 C 72.883 339.899,71.569 340.229,71.532 340.183 C 71.477 340.117,60.333 320.830,59.004 318.500 C 57.318 315.546,50.182 303.138,47.847 299.100 C 47.021 297.670,45.877 295.690,45.307 294.700 C 44.736 293.710,43.610 291.775,42.805 290.400 C 41.999 289.025,40.693 286.775,39.902 285.400 C 39.111 284.025,37.762 281.685,36.904 280.200 C 36.046 278.715,34.697 276.375,33.906 275.000 C 33.116 273.625,31.765 271.285,30.906 269.800 C 27.023 263.093,26.279 261.803,25.437 260.319 L 24.541 258.737 25.720 257.622 C 26.857 256.547,34.098 249.592,39.900 244.002 C 41.440 242.518,43.510 240.527,44.500 239.577 C 45.490 238.627,47.130 237.051,48.144 236.075 L 49.987 234.300 49.515 231.000 C 42.844 184.343,60.935 133.987,96.168 101.142 C 103.822 94.006,110.374 88.994,120.460 82.558 C 122.648 81.161,130.403 76.876,132.700 75.794 C 133.800 75.276,135.690 74.383,136.900 73.810 C 138.110 73.237,140.225 72.315,141.600 71.761 C 142.975 71.207,144.203 70.651,144.329 70.527 C 144.553 70.306,144.905 68.932,148.900 52.700 C 152.172 39.403,152.847 36.705,152.937 36.550 C 152.985 36.467,174.188 36.422,200.054 36.450 L 247.085 36.500 248.011 40.200 M189.800 43.344 C 186.214 43.721,182.923 46.841,183.238 49.565 C 183.300 50.099,183.301 50.098,183.737 49.361 C 185.657 46.112,190.561 46.421,192.300 49.900 C 194.275 53.850,190.924 58.401,184.650 60.291 C 184.018 60.482,184.072 60.677,185.171 62.176 C 192.270 71.857,197.068 82.531,199.408 93.850 C 199.959 96.517,200.041 96.517,200.592 93.850 C 202.932 82.531,207.730 71.857,214.829 62.176 C 215.928 60.677,215.982 60.482,215.350 60.291 C 209.076 58.401,205.725 53.850,207.700 49.900 C 209.440 46.420,214.342 46.111,216.263 49.361 C 216.794 50.259,216.990 49.650,216.617 48.262 C 214.616 40.833,201.750 42.320,200.278 50.150 C 200.210 50.508,200.086 50.800,200.000 50.800 C 199.914 50.800,199.790 50.508,199.722 50.150 C 198.954 46.063,194.301 42.871,189.800 43.344 M200.268 56.190 C 200.665 58.177,202.680 60.937,204.735 62.309 C 205.376 62.736,205.976 63.147,206.069 63.222 C 206.162 63.297,205.723 64.232,205.095 65.301 C 203.916 67.304,200.847 73.522,200.382 74.850 C 200.238 75.263,200.066 75.600,200.000 75.600 C 199.934 75.600,199.762 75.263,199.618 74.850 C 199.153 73.522,196.084 67.304,194.905 65.301 C 194.277 64.232,193.838 63.297,193.931 63.222 C 194.024 63.147,194.624 62.736,195.265 62.309 C 197.320 60.937,199.335 58.177,199.732 56.190 C 199.883 55.436,200.117 55.436,200.268 56.190 M96.300 270.630 C 86.254 273.939,74.263 275.011,62.120 273.683 C 61.064 273.567,60.953 273.589,61.069 273.892 C 62.316 277.142,61.309 282.766,59.130 284.725 C 55.006 288.432,48.607 283.883,51.147 279.050 C 51.791 277.824,51.279 277.938,50.037 279.298 C 44.625 285.219,52.671 295.276,60.436 292.297 C 60.609 292.231,60.353 292.602,59.869 293.122 C 54.312 299.090,59.395 309.962,66.774 307.891 C 68.400 307.435,68.424 307.312,66.941 307.037 C 61.891 306.097,61.300 299.213,66.116 297.411 C 68.836 296.394,71.683 297.189,75.450 300.017 L 77.000 301.181 78.702 297.655 C 83.995 286.694,89.858 278.695,97.718 271.714 C 100.564 269.186,100.599 269.213,96.300 270.630 M300.233 269.777 C 300.270 269.874,301.192 270.745,302.282 271.714 C 310.142 278.695,316.005 286.694,321.298 297.655 L 323.000 301.181 324.550 300.017 C 328.317 297.189,331.164 296.394,333.884 297.411 C 338.700 299.213,338.109 306.097,333.059 307.037 C 331.576 307.312,331.600 307.435,333.226 307.891 C 340.605 309.962,345.688 299.090,340.131 293.122 C 339.647 292.602,339.391 292.231,339.564 292.297 C 347.329 295.276,355.375 285.219,349.963 279.298 C 348.721 277.938,348.209 277.824,348.853 279.050 C 351.393 283.883,344.994 288.432,340.870 284.725 C 338.691 282.766,337.684 277.142,338.931 273.892 C 339.047 273.589,338.936 273.567,337.880 273.683 C 325.788 275.005,314.189 273.986,303.869 270.694 C 300.200 269.524,300.132 269.507,300.233 269.777 M80.828 281.650 C 79.092 283.992,76.950 287.242,75.599 289.583 C 75.022 290.582,74.529 291.400,74.502 291.400 C 74.475 291.400,73.831 291.088,73.069 290.707 C 70.637 289.491,67.384 289.183,64.900 289.936 C 64.613 290.023,64.732 289.804,65.320 289.166 C 67.028 287.308,67.958 285.072,68.139 282.379 L 68.255 280.659 73.078 280.525 C 75.730 280.451,78.710 280.271,79.700 280.124 C 80.690 279.977,81.657 279.844,81.850 279.829 C 82.098 279.808,81.801 280.337,80.828 281.650 M320.100 280.110 C 321.310 280.279,324.425 280.471,327.022 280.537 L 331.745 280.657 331.861 282.379 C 332.042 285.072,332.971 287.308,334.680 289.166 C 335.268 289.804,335.387 290.023,335.100 289.936 C 332.616 289.183,329.363 289.491,326.931 290.707 C 326.169 291.088,325.525 291.400,325.498 291.400 C 325.471 291.400,324.978 290.582,324.401 289.583 C 323.050 287.242,320.908 283.992,319.172 281.650 C 318.418 280.632,317.823 279.801,317.850 279.802 C 317.878 279.803,318.890 279.941,320.100 280.110 M207.700 325.692 C 208.705 326.125,209.354 326.225,208.500 325.814 C 208.060 325.603,207.565 325.430,207.400 325.431 C 207.235 325.432,207.370 325.549,207.700 325.692 " stroke="none" fill="#000000" fill-rule="evenodd"></path><path id="path2" d="M237.300 154.133 C 220.079 155.186,206.329 160.687,194.719 171.169 C 178.235 186.051,168.478 205.240,165.006 229.600 C 163.473 240.360,163.432 255.349,164.907 265.938 C 168.844 294.194,183.362 315.341,205.268 324.728 C 207.776 325.803,207.513 325.494,204.684 324.042 C 173.087 307.825,163.278 259.976,183.341 219.916 C 194.048 198.535,209.737 187.907,230.600 187.902 C 247.117 187.897,260.993 194.484,270.029 206.620 C 277.229 216.288,279.236 223.974,279.998 244.800 C 280.699 263.934,282.299 270.942,287.581 277.995 C 288.196 278.818,288.763 279.580,288.839 279.689 C 289.281 280.322,289.086 279.422,288.405 277.687 C 286.708 273.363,286.074 269.559,286.258 264.800 C 286.464 259.470,287.246 256.129,290.890 245.000 C 294.304 234.575,295.218 227.590,293.912 221.920 C 293.452 219.926,293.647 220.086,294.578 222.468 C 298.997 233.770,299.155 246.237,294.985 254.650 C 293.555 257.534,294.029 257.270,296.873 253.600 C 311.730 234.427,311.254 203.651,295.766 182.041 C 281.892 162.681,260.954 152.687,237.300 154.133 " stroke="none" fill="#84006b" fill-rule="evenodd"></path><path id="path3" d="M128.600 143.523 C 112.138 144.984,100.640 154.103,98.712 167.226 C 98.184 170.821,98.365 172.344,99.059 170.150 C 101.574 162.203,112.504 158.140,120.700 162.107 C 130.626 166.910,132.560 178.636,128.107 207.000 C 123.385 237.073,126.686 259.447,138.964 280.600 C 150.222 299.996,170.329 316.703,190.463 323.390 C 193.481 324.393,193.836 324.361,191.551 323.292 C 173.757 314.967,161.359 296.274,156.514 270.464 C 153.485 254.328,153.624 236.889,157.003 209.300 C 157.541 204.900,158.117 200.040,158.283 198.500 C 159.851 183.885,158.718 174.884,154.305 166.914 C 153.058 164.662,153.061 164.698,154.129 165.075 C 163.991 168.554,170.721 181.891,168.753 194.050 C 168.366 196.439,168.595 196.246,169.467 193.450 C 175.828 173.049,169.751 156.421,152.931 148.201 C 145.680 144.658,136.248 142.844,128.600 143.523 " stroke="none" fill="#ffd600" fill-rule="evenodd"></path><path id="path4" d="M223.600 198.807 C 211.851 200.235,202.043 205.684,194.272 215.100 C 184.063 227.471,179.181 241.246,178.181 260.501 C 176.916 284.856,185.735 306.240,201.800 317.773 C 204.334 319.592,204.328 319.269,201.778 316.650 C 184.128 298.519,184.534 262.500,202.593 244.387 C 212.749 234.202,229.070 234.170,236.710 244.322 C 247.017 258.016,233.449 279.397,216.768 275.748 C 216.136 275.609,216.521 276.223,217.454 276.843 C 226.240 282.677,241.347 281.165,248.969 273.689 C 249.799 272.876,250.495 272.231,250.518 272.255 C 250.540 272.280,250.745 272.930,250.974 273.700 C 254.121 284.283,267.860 294.540,281.800 296.713 C 285.511 297.292,286.529 297.388,289.000 297.392 C 293.614 297.399,294.022 297.090,290.693 296.111 C 275.320 291.592,268.995 278.025,270.594 253.000 C 271.581 237.558,270.640 230.245,266.557 221.609 C 259.428 206.533,240.911 196.703,223.600 198.807 " stroke="none" fill="#0094c6" fill-rule="evenodd"></path><path id="path5" d="M189.682 95.525 C 190.815 98.477,190.511 103.371,189.001 106.500 C 186.246 112.209,180.329 115.908,164.643 121.728 C 161.879 122.754,156.272 124.934,154.829 125.544 C 154.679 125.608,155.316 124.903,156.244 123.980 C 161.154 119.092,164.233 111.467,163.626 105.700 C 163.471 104.224,163.259 104.233,162.693 105.738 C 160.689 111.067,157.395 114.737,152.275 117.342 C 149.323 118.845,147.708 119.429,139.100 122.109 C 121.765 127.505,112.347 134.923,103.820 149.897 C 101.361 154.216,101.363 154.463,103.836 151.886 C 106.984 148.608,110.527 146.020,114.500 144.099 C 122.374 140.291,128.512 139.785,144.500 141.627 C 158.991 143.297,168.975 141.307,178.749 134.800 C 191.566 126.269,197.471 107.337,190.766 96.273 C 190.167 95.285,189.382 94.743,189.682 95.525 " stroke="none" fill="#ff0000" fill-rule="evenodd"></path><path id="path6" d="M113.128 166.539 C 113.073 166.594,113.347 167.082,113.737 167.625 C 115.622 170.249,115.836 174.722,114.274 178.853 C 112.764 182.848,109.140 186.318,104.700 188.021 C 101.957 189.073,102.686 189.500,107.200 189.483 C 111.218 189.469,113.978 188.415,116.350 185.990 C 117.359 184.958,117.380 185.064,116.688 187.728 C 115.585 191.976,114.079 195.678,109.702 204.900 C 102.352 220.387,100.008 232.276,101.817 244.900 C 104.290 262.154,114.476 276.009,130.487 283.897 C 135.271 286.255,135.904 286.365,133.361 284.400 C 116.422 271.312,109.755 245.875,116.404 219.702 C 116.935 217.611,118.330 213.065,119.504 209.600 C 123.758 197.037,124.291 195.209,124.888 191.123 C 126.482 180.219,123.748 172.346,116.931 168.204 C 115.544 167.362,113.291 166.375,113.128 166.539 " stroke="none" fill="#109c52" fill-rule="evenodd"></path></g></svg>